<svg width="494" height="112" viewBox="0 0 494 112" fill="none" xmlns="http://www.w3.org/2000/svg">
<path d="M144.457 97.3074V69.5088L120.386 55.6055L96.3074 69.5088V97.3074L120.386 111.211L144.457 97.3074Z" fill="#02BAFF"/>
<path d="M144.457 41.71V13.9033L120.386 0L96.3074 13.9033V41.71L120.386 55.6053L144.457 41.71Z" fill="#017FF8"/>
<path d="M96.3074 69.5086L120.386 55.6053L96.3074 41.71L72.2285 27.8066L48.1497 41.71L24.0789 55.6053L48.1497 69.5086L72.2285 83.4119L96.3074 69.5086Z" fill="#1C21BD"/>
<path d="M48.1497 97.3074V69.5088L24.0788 55.6055L0 69.5088V97.3074L24.0788 111.211L48.1497 97.3074Z" fill="#017FF8"/>
<path d="M48.1497 41.71V13.9033L24.0788 0L0 13.9033V41.71L24.0788 55.6053L48.1497 41.71Z" fill="#02BAFF"/>
<path d="M210.862 86.4043V106.699H206.79V98.0597H198.094V106.699H194.022V86.4043H198.094V94.7479H206.79V86.4043H210.862Z" fill="black"/>
<path d="M246.364 105.571C244.772 104.683 243.516 103.443 242.58 101.867C241.652 100.291 241.188 98.4994 241.188 96.4995C241.188 94.4996 241.652 92.7477 242.58 91.1638C243.508 89.5878 244.772 88.3479 246.364 87.4599C247.956 86.572 249.7 86.124 251.596 86.124C253.492 86.124 255.268 86.572 256.843 87.4599C258.419 88.3479 259.675 89.5878 260.595 91.1638C261.515 92.7477 261.979 94.5236 261.979 96.4995C261.979 98.4754 261.515 100.283 260.595 101.867C259.675 103.451 258.419 104.683 256.827 105.571C255.236 106.467 253.492 106.907 251.596 106.907C249.7 106.907 247.948 106.459 246.364 105.571ZM254.828 102.443C255.756 101.891 256.484 101.099 257.011 100.075C257.531 99.0514 257.795 97.8594 257.795 96.4995C257.795 95.1396 257.531 93.9556 257.011 92.9397C256.492 91.9237 255.764 91.1398 254.828 90.5958C253.9 90.0518 252.82 89.7798 251.604 89.7798C250.388 89.7798 249.3 90.0518 248.364 90.5958C247.42 91.1398 246.692 91.9157 246.172 92.9397C245.652 93.9556 245.388 95.1476 245.388 96.4995C245.388 97.8514 245.652 99.0514 246.172 100.075C246.692 101.099 247.428 101.891 248.364 102.443C249.308 102.995 250.388 103.275 251.604 103.275C252.82 103.275 253.9 102.995 254.828 102.443Z" fill="black"/>
<path d="M294.954 106.179C293.818 105.691 292.922 104.995 292.266 104.083C291.61 103.171 291.266 102.099 291.25 100.859H295.61C295.666 101.691 295.962 102.355 296.498 102.835C297.034 103.323 297.762 103.563 298.69 103.563C299.618 103.563 300.386 103.339 300.93 102.883C301.473 102.427 301.745 101.835 301.745 101.091C301.745 100.491 301.561 99.9955 301.194 99.6116C300.826 99.2276 300.362 98.9156 299.81 98.6916C299.258 98.4676 298.498 98.2196 297.53 97.9476C296.21 97.5636 295.138 97.1797 294.314 96.7957C293.49 96.4197 292.786 95.8437 292.194 95.0837C291.602 94.3158 291.306 93.2919 291.306 92.0199C291.306 90.82 291.61 89.772 292.21 88.8761C292.81 87.9881 293.65 87.3002 294.738 86.8282C295.826 86.3562 297.066 86.1162 298.458 86.1162C300.554 86.1162 302.249 86.6282 303.561 87.6441C304.873 88.6601 305.593 90.084 305.729 91.8999H301.25C301.21 91.2039 300.914 90.628 300.362 90.172C299.81 89.716 299.074 89.492 298.17 89.492C297.378 89.492 296.738 89.692 296.266 90.1C295.794 90.508 295.554 91.1 295.554 91.8759C295.554 92.4199 295.73 92.8679 296.09 93.2279C296.45 93.5879 296.898 93.8758 297.426 94.0998C297.962 94.3238 298.706 94.5798 299.682 94.8678C301.002 95.2598 302.073 95.6438 302.905 96.0277C303.737 96.4197 304.457 96.9957 305.057 97.7717C305.657 98.5476 305.961 99.5636 305.961 100.828C305.961 101.915 305.681 102.923 305.121 103.851C304.561 104.779 303.737 105.523 302.649 106.075C301.561 106.627 300.274 106.907 298.786 106.907C297.37 106.907 296.098 106.667 294.962 106.179H294.954Z" fill="black"/>
<path d="M352.359 86.4043V89.6921H346.951V106.699H342.879V89.6921H337.471V86.4043H352.359Z" fill="black"/>
<path d="M389.725 86.4043V106.699H385.653V86.4043H389.725Z" fill="black"/>
<path d="M437.027 106.707H432.955L423.739 92.7796V106.707H419.667V86.3799H423.739L432.955 100.339V86.3799H437.027V106.707Z" fill="black"/>
<path d="M481.041 92.5154C480.577 91.6594 479.937 91.0114 479.121 90.5635C478.305 90.1155 477.353 89.8915 476.273 89.8915C475.073 89.8915 474.001 90.1635 473.073 90.7074C472.145 91.2514 471.417 92.0274 470.889 93.0353C470.369 94.0433 470.105 95.2032 470.105 96.5232C470.105 97.8431 470.369 99.059 470.905 100.067C471.441 101.075 472.177 101.851 473.129 102.395C474.081 102.939 475.185 103.211 476.441 103.211C477.993 103.211 479.265 102.803 480.249 101.979C481.241 101.155 481.889 100.003 482.201 98.531H475.225V95.4192H486.216V98.963C485.944 100.379 485.36 101.691 484.472 102.891C483.577 104.091 482.433 105.059 481.025 105.787C479.617 106.515 478.041 106.875 476.297 106.875C474.337 106.875 472.569 106.435 470.993 105.555C469.409 104.675 468.169 103.451 467.273 101.875C466.369 100.307 465.921 98.5231 465.921 96.5232C465.921 94.5233 466.369 92.7393 467.273 91.1554C468.177 89.5795 469.417 88.3476 470.993 87.4596C472.569 86.5796 474.329 86.1396 476.273 86.1396C478.561 86.1396 480.545 86.6996 482.233 87.8116C483.921 88.9235 485.08 90.4915 485.72 92.5074H481.041V92.5154Z" fill="black"/>
<path d="M229.973 29.582H204.526V5.15918H192.615V64.5563H204.526V39.2775H229.973V64.5563H241.884V5.15918H229.973V29.582Z" fill="black"/>
<path d="M322.08 8.22332C317.457 5.61545 312.337 4.31152 306.721 4.31152C301.105 4.31152 296.058 5.61545 291.402 8.22332C286.754 10.8312 283.066 14.447 280.339 19.0708C277.619 23.6946 276.251 28.9023 276.251 34.686C276.251 40.4698 277.611 45.7575 280.339 50.3893C283.058 55.0131 286.746 58.6289 291.402 61.2367C296.05 63.8446 301.161 65.1486 306.721 65.1486C312.281 65.1486 317.385 63.8446 322.04 61.2367C326.688 58.6289 330.368 55.0131 333.064 50.3893C335.76 45.7655 337.104 40.5338 337.104 34.686C337.104 28.8383 335.752 23.6946 333.064 19.0708C330.368 14.447 326.712 10.8312 322.088 8.22332H322.08ZM322.544 45.1495C321.009 48.1574 318.889 50.4693 316.161 52.0852C313.433 53.7011 310.289 54.5091 306.713 54.5091C303.137 54.5091 299.978 53.7011 297.226 52.0852C294.474 50.4693 292.33 48.1574 290.802 45.1495C289.266 42.1417 288.506 38.6539 288.506 34.686C288.506 30.7182 289.274 27.2384 290.802 24.2626C292.33 21.2867 294.474 18.9988 297.226 17.4149C299.978 15.831 303.137 15.031 306.713 15.031C310.289 15.031 313.433 15.823 316.161 17.4149C318.881 19.0068 321.009 21.2867 322.544 24.2626C324.08 27.2384 324.84 30.7182 324.84 34.686C324.84 38.6539 324.072 42.1497 322.544 45.1495Z" fill="black"/>
<path d="M383.381 5.15918H371.47V64.5563H402.956V55.1088H383.381V5.15918Z" fill="black"/>
<path d="M489.96 19.0708C487.264 14.447 483.608 10.8312 478.985 8.22332C474.361 5.61545 469.241 4.31152 463.625 4.31152C458.01 4.31152 452.962 5.61545 448.306 8.22332C443.658 10.8312 439.97 14.447 437.243 19.0708C434.523 23.6946 433.163 28.9023 433.163 34.686C433.163 40.4698 434.523 45.7575 437.243 50.3893C439.962 55.0131 443.65 58.6289 448.306 61.2367C452.954 63.8446 458.066 65.1486 463.625 65.1486C469.185 65.1486 474.289 63.8446 478.945 61.2367C483.592 58.6289 487.272 55.0131 489.96 50.3893C492.656 45.7655 494 40.5338 494 34.686C494 28.8383 492.656 23.6946 489.96 19.0708ZM479.449 45.1495C477.921 48.1574 475.793 50.4693 473.065 52.0852C470.345 53.7011 467.193 54.5091 463.617 54.5091C460.041 54.5091 456.882 53.7011 454.13 52.0852C451.378 50.4693 449.234 48.1574 447.706 45.1495C446.17 42.1417 445.41 38.6539 445.41 34.686C445.41 30.7182 446.178 27.2384 447.706 24.2626C449.234 21.2867 451.378 18.9988 454.13 17.4149C456.882 15.831 460.041 15.031 463.617 15.031C467.193 15.031 470.337 15.823 473.065 17.4149C475.785 19.0068 477.913 21.2867 479.449 24.2626C480.985 27.2384 481.744 30.7182 481.744 34.686C481.744 38.6539 480.977 42.1497 479.449 45.1495Z" fill="black"/>
</svg>
