<svg width="56" height="42" viewBox="0 0 56 42" fill="none" xmlns="http://www.w3.org/2000/svg">
<path d="M0 5.21161V15.4991L9.55462 20.8464L19.1092 15.4991V5.21161L9.55462 0L0 5.21161Z" fill="#1DBAFE"/>
<path d="M36.4812 5.21161V15.4991L46.0358 20.8464L55.5904 15.4991V5.21161L46.0358 0L36.4812 5.21161Z" fill="#1DBAFE"/>
<path d="M36.4812 26.4923V36.3455L46.0358 41.6929L55.5904 36.3455V26.058L46.0358 20.8464L36.4812 26.4923Z" fill="#1DBAFE"/>
<path d="M0 26.058C0.144767 29.0982 0.347441 35.4389 0 36.4813L9.55462 41.6929L19.1092 36.4813V26.058L9.55462 20.8464L0 26.058Z" fill="#1393F5"/>
<path d="M28.2296 10.4232L9.55469 20.8464L28.2296 31.704L46.036 20.8464L28.2296 10.4232Z" fill="#0F2196"/>
</svg>
